<?xml version="1.0" encoding="UTF-8"?>
<svg width="200" height="200" viewBox="0 0 200 200" xmlns="http://www.w3.org/2000/svg">
  <!-- Gradient Definitions -->
  <defs>
    <!-- Gradient de fond -->
    <radialGradient id="backgroundGradient" cx="50%" cy="50%" r="50%">
      <stop offset="0%" style="stop-color:#ffffff;stop-opacity:1" />
      <stop offset="70%" style="stop-color:#f8fafc;stop-opacity:1" />
      <stop offset="100%" style="stop-color:#dbeafe;stop-opacity:1" />
    </radialGradient>
    
    <!-- Filtre d'ombre -->
    <filter id="dropShadow" x="-50%" y="-50%" width="200%" height="200%">
      <feDropShadow dx="2" dy="2" stdDeviation="3" flood-color="rgba(30,64,175,0.4)"/>
    </filter>
    
    <!-- Dégradés pour les mains en cercle - Palette Sénégal + Autisme -->
    <linearGradient id="hand1" x1="0%" y1="0%" x2="100%" y2="100%">
      <stop offset="0%" style="stop-color:#2563eb;stop-opacity:1" />
      <stop offset="50%" style="stop-color:#3b82f6;stop-opacity:1" />
      <stop offset="100%" style="stop-color:#60a5fa;stop-opacity:1" />
    </linearGradient>
    
    <linearGradient id="hand2" x1="0%" y1="0%" x2="100%" y2="100%">
      <stop offset="0%" style="stop-color:#1e40af;stop-opacity:1" />
      <stop offset="50%" style="stop-color:#f9ca24;stop-opacity:1" />
      <stop offset="100%" style="stop-color:#60a5fa;stop-opacity:1" />
    </linearGradient>
    
    <linearGradient id="hand3" x1="0%" y1="0%" x2="100%" y2="100%">
      <stop offset="0%" style="stop-color:#3b82f6;stop-opacity:1" />
      <stop offset="50%" style="stop-color:#00853f;stop-opacity:1" />
      <stop offset="100%" style="stop-color:#93c5fd;stop-opacity:1" />
    </linearGradient>
    
    <linearGradient id="hand4" x1="0%" y1="0%" x2="100%" y2="100%">
      <stop offset="0%" style="stop-color:#2563eb;stop-opacity:1" />
      <stop offset="33%" style="stop-color:#00853f;stop-opacity:1" />
      <stop offset="66%" style="stop-color:#f9ca24;stop-opacity:1" />
      <stop offset="100%" style="stop-color:#3b82f6;stop-opacity:1" />
    </linearGradient>
    
    <linearGradient id="hand5" x1="0%" y1="0%" x2="100%" y2="100%">
      <stop offset="0%" style="stop-color:#60a5fa;stop-opacity:1" />
      <stop offset="50%" style="stop-color:#fbbf24;stop-opacity:1" />
      <stop offset="100%" style="stop-color:#1e40af;stop-opacity:1" />
    </linearGradient>
    
    <linearGradient id="hand6" x1="0%" y1="0%" x2="100%" y2="100%">
      <stop offset="0%" style="stop-color:#2563eb;stop-opacity:1" />
      <stop offset="50%" style="stop-color:#10b981;stop-opacity:1" />
      <stop offset="100%" style="stop-color:#3b82f6;stop-opacity:1" />
    </linearGradient>
    
    <linearGradient id="centerGradient" x1="0%" y1="0%" x2="100%" y2="100%">
      <stop offset="0%" style="stop-color:#1e40af;stop-opacity:1" />
      <stop offset="50%" style="stop-color:#2563eb;stop-opacity:1" />
      <stop offset="100%" style="stop-color:#3b82f6;stop-opacity:1" />
    </linearGradient>
    
    <!-- Gradient bleu autisme pour le texte -->
    <linearGradient id="autismBlueText" x1="0%" y1="0%" x2="100%" y2="100%">
      <stop offset="0%" style="stop-color:#1e40af;stop-opacity:1" />
      <stop offset="50%" style="stop-color:#2563eb;stop-opacity:1" />
      <stop offset="100%" style="stop-color:#3b82f6;stop-opacity:1" />
    </linearGradient>
    
    <!-- Gradient pour le baobab (marron-brun) -->
    <linearGradient id="baobabTrunk" x1="0%" y1="0%" x2="0%" y2="100%">
      <stop offset="0%" style="stop-color:#78350f;stop-opacity:1" />
      <stop offset="50%" style="stop-color:#92400e;stop-opacity:1" />
      <stop offset="100%" style="stop-color:#a16207;stop-opacity:1" />
    </linearGradient>
    
    <!-- Gradient pour le feuillage (vert sénégalais + bleu autisme) -->
    <radialGradient id="baobabLeaves" cx="50%" cy="50%" r="50%">
      <stop offset="0%" style="stop-color:#10b981;stop-opacity:0.9" />
      <stop offset="50%" style="stop-color:#00853f;stop-opacity:0.8" />
      <stop offset="100%" style="stop-color:#2563eb;stop-opacity:0.7" />
    </radialGradient>
    
    <!-- Filtre d'ombre pour le texte -->
    <filter id="textShadow" x="-20%" y="-20%" width="140%" height="140%">
      <feDropShadow dx="1" dy="1" stdDeviation="2" flood-color="rgba(30,64,175,0.5)"/>
    </filter>
    
    <!-- Filtre pour effet de lueur -->
    <filter id="glow" x="-30%" y="-30%" width="160%" height="160%">
      <feGaussianBlur stdDeviation="2" result="coloredBlur"/>
      <feMerge>
        <feMergeNode in="coloredBlur"/>
        <feMergeNode in="SourceGraphic"/>
      </feMerge>
    </filter>
  </defs>
  
  <!-- Fond -->
  <circle cx="100" cy="100" r="98" fill="url(#backgroundGradient)" stroke="#2563eb" stroke-width="3"/>
  
  <!-- Cercle central avec puzzle détaillé de l'autisme -->
  <circle cx="100" cy="100" r="35" fill="url(#centerGradient)" opacity="0.95" filter="url(#dropShadow)"/>
  
  <!-- Puzzle de l'autisme détaillé (4 pièces) - Couleurs Bleu Autisme -->
  <g transform="translate(100, 100)" filter="url(#dropShadow)">
    <!-- Pièce de puzzle 1 (haut-gauche) - Bleu Foncé -->
    <path d="M-17 -17 L-5 -17 Q-5 -22, 0 -22 Q5 -22, 5 -17 L17 -17 Q22 -17, 22 -12 Q22 -7, 17 -7 Q12 -7, 12 -2 L12 2 Q12 7, 7 7 Q2 7, 2 2 L-2 2 Q-7 2, -7 -3 Q-7 -8, -2 -8 L-2 -12 Q-2 -17, -7 -17 Q-12 -17, -12 -12 Q-12 -7, -17 -7 Q-22 -7, -22 -12 Q-22 -17, -17 -17 Z" 
          fill="#1e40af" 
          stroke="white" 
          stroke-width="1.5" 
          opacity="0.95"/>
    <circle cx="-8" cy="-8" r="2" fill="rgba(255,255,255,0.7)"/>
    
    <!-- Pièce de puzzle 2 (haut-droite) - Bleu Moyen -->
    <path d="M17 -17 L5 -17 Q5 -22, 0 -22 Q-5 -22, -5 -17 L-17 -17 Q-22 -17, -22 -12 Q-22 -7, -17 -7 Q-12 -7, -12 -2 L-12 2 Q-12 7, -7 7 Q-2 7, -2 2 L2 2 Q7 2, 7 -3 Q7 -8, 2 -8 L2 -12 Q2 -17, 7 -17 Q12 -17, 12 -12 Q12 -7, 17 -7 Q22 -7, 22 -12 Q22 -17, 17 -17 Z" 
          fill="#2563eb" 
          stroke="white" 
          stroke-width="1.5" 
          opacity="0.95" 
          transform="rotate(90)"/>
    <circle cx="8" cy="-8" r="2" fill="rgba(255,255,255,0.7)" transform="rotate(90)"/>
    
    <!-- Pièce de puzzle 3 (bas-droite) - Bleu Clair -->
    <path d="M17 17 L5 17 Q5 22, 0 22 Q-5 22, -5 17 L-17 17 Q-22 17, -22 12 Q-22 7, -17 7 Q-12 7, -12 2 L-12 -2 Q-12 -7, -7 -7 Q-2 -7, -2 -2 L2 -2 Q7 -2, 7 3 Q7 8, 2 8 L2 12 Q2 17, 7 17 Q12 17, 12 12 Q12 7, 17 7 Q22 7, 22 12 Q22 17, 17 17 Z" 
          fill="#3b82f6" 
          stroke="white" 
          stroke-width="1.5" 
          opacity="0.95" 
          transform="rotate(180)"/>
    <circle cx="8" cy="8" r="2" fill="rgba(255,255,255,0.7)" transform="rotate(180)"/>
    
    <!-- Pièce de puzzle 4 (bas-gauche) - Bleu Très Clair -->
    <path d="M-17 17 L-5 17 Q-5 22, 0 22 Q5 22, 5 17 L17 17 Q22 17, 22 12 Q22 7, 17 7 Q12 7, 12 2 L12 -2 Q12 -7, 7 -7 Q2 -7, 2 -2 L-2 -2 Q-7 -2, -7 3 Q-7 8, -2 8 L-2 12 Q-2 17, -7 17 Q-12 17, -12 12 Q-12 7, -17 7 Q-22 7, -22 12 Q-22 17, -17 17 Z" 
          fill="#60a5fa" 
          stroke="white" 
          stroke-width="1.5" 
          opacity="0.95" 
          transform="rotate(270)"/>
    <circle cx="-8" cy="8" r="2" fill="rgba(255,255,255,0.7)" transform="rotate(270)"/>
    
    <!-- Centre du puzzle - Connexion -->
    <circle cx="0" cy="0" r="4" fill="white" opacity="0.9"/>
    <circle cx="0" cy="0" r="2" fill="url(#centerGradient)"/>
    
    <!-- Lignes de jointure subtiles -->
    <line x1="-17" y1="0" x2="17" y2="0" stroke="rgba(255,255,255,0.5)" stroke-width="0.5"/>
    <line x1="0" y1="-17" x2="0" y2="17" stroke="rgba(255,255,255,0.5)" stroke-width="0.5"/>
  </g>
  
  <!-- Mains détaillées en cercle (6 mains) -->
  <!-- Main 1 (en haut) -->
  <g transform="translate(100, 58) scale(0.85) rotate(0)" filter="url(#dropShadow)">
    <ellipse cx="0" cy="-2" rx="8" ry="12" fill="url(#hand1)"/>
    <ellipse cx="-5" cy="-10" rx="2" ry="6" fill="url(#hand1)"/>
    <ellipse cx="-2" cy="-12" rx="2.2" ry="7" fill="url(#hand1)"/>
    <ellipse cx="1" cy="-11" rx="2.2" ry="6.5" fill="url(#hand1)"/>
    <ellipse cx="4" cy="-9" rx="2" ry="5" fill="url(#hand1)"/>
    <ellipse cx="-7" cy="-5" rx="2.5" ry="4" fill="url(#hand1)" transform="rotate(-30)"/>
    <rect x="-4" y="8" width="8" height="8" rx="3" fill="url(#hand1)"/>
    <path d="M-2 0 Q0 2, 2 0" stroke="rgba(255,255,255,0.4)" stroke-width="1" fill="none"/>
  </g>
  
  <!-- Main 2 (en haut à droite) -->
  <g transform="translate(141, 82) scale(0.85) rotate(60)" filter="url(#dropShadow)">
    <ellipse cx="0" cy="-2" rx="8" ry="12" fill="url(#hand2)"/>
    <ellipse cx="-5" cy="-10" rx="2" ry="6" fill="url(#hand2)"/>
    <ellipse cx="-2" cy="-12" rx="2.2" ry="7" fill="url(#hand2)"/>
    <ellipse cx="1" cy="-11" rx="2.2" ry="6.5" fill="url(#hand2)"/>
    <ellipse cx="4" cy="-9" rx="2" ry="5" fill="url(#hand2)"/>
    <ellipse cx="-7" cy="-5" rx="2.5" ry="4" fill="url(#hand2)" transform="rotate(-30)"/>
    <rect x="-4" y="8" width="8" height="8" rx="3" fill="url(#hand2)"/>
    <path d="M-2 0 Q0 2, 2 0" stroke="rgba(255,255,255,0.4)" stroke-width="1" fill="none"/>
  </g>
  
  <!-- Main 3 (en bas à droite) -->
  <g transform="translate(141, 118) scale(0.85) rotate(120)" filter="url(#dropShadow)">
    <ellipse cx="0" cy="-2" rx="8" ry="12" fill="url(#hand3)"/>
    <ellipse cx="-5" cy="-10" rx="2" ry="6" fill="url(#hand3)"/>
    <ellipse cx="-2" cy="-12" rx="2.2" ry="7" fill="url(#hand3)"/>
    <ellipse cx="1" cy="-11" rx="2.2" ry="6.5" fill="url(#hand3)"/>
    <ellipse cx="4" cy="-9" rx="2" ry="5" fill="url(#hand3)"/>
    <ellipse cx="-7" cy="-5" rx="2.5" ry="4" fill="url(#hand3)" transform="rotate(-30)"/>
    <rect x="-4" y="8" width="8" height="8" rx="3" fill="url(#hand3)"/>
    <path d="M-2 0 Q0 2, 2 0" stroke="rgba(255,255,255,0.4)" stroke-width="1" fill="none"/>
  </g>
  
  <!-- Main 4 (en bas) -->
  <g transform="translate(100, 142) scale(0.85) rotate(180)" filter="url(#dropShadow)">
    <ellipse cx="0" cy="-2" rx="8" ry="12" fill="url(#hand4)"/>
    <ellipse cx="-5" cy="-10" rx="2" ry="6" fill="url(#hand4)"/>
    <ellipse cx="-2" cy="-12" rx="2.2" ry="7" fill="url(#hand4)"/>
    <ellipse cx="1" cy="-11" rx="2.2" ry="6.5" fill="url(#hand4)"/>
    <ellipse cx="4" cy="-9" rx="2" ry="5" fill="url(#hand4)"/>
    <ellipse cx="-7" cy="-5" rx="2.5" ry="4" fill="url(#hand4)" transform="rotate(-30)"/>
    <rect x="-4" y="8" width="8" height="8" rx="3" fill="url(#hand4)"/>
    <path d="M-2 0 Q0 2, 2 0" stroke="rgba(255,255,255,0.4)" stroke-width="1" fill="none"/>
  </g>
  
  <!-- Main 5 (en bas à gauche) -->
  <g transform="translate(59, 118) scale(0.85) rotate(240)" filter="url(#dropShadow)">
    <ellipse cx="0" cy="-2" rx="8" ry="12" fill="url(#hand5)"/>
    <ellipse cx="-5" cy="-10" rx="2" ry="6" fill="url(#hand5)"/>
    <ellipse cx="-2" cy="-12" rx="2.2" ry="7" fill="url(#hand5)"/>
    <ellipse cx="1" cy="-11" rx="2.2" ry="6.5" fill="url(#hand5)"/>
    <ellipse cx="4" cy="-9" rx="2" ry="5" fill="url(#hand5)"/>
    <ellipse cx="-7" cy="-5" rx="2.5" ry="4" fill="url(#hand5)" transform="rotate(-30)"/>
    <rect x="-4" y="8" width="8" height="8" rx="3" fill="url(#hand5)"/>
    <path d="M-2 0 Q0 2, 2 0" stroke="rgba(255,255,255,0.4)" stroke-width="1" fill="none"/>
  </g>
  
  <!-- Main 6 (en haut à gauche) -->
  <g transform="translate(59, 82) scale(0.85) rotate(300)" filter="url(#dropShadow)">
    <ellipse cx="0" cy="-2" rx="8" ry="12" fill="url(#hand6)"/>
    <ellipse cx="-5" cy="-10" rx="2" ry="6" fill="url(#hand6)"/>
    <ellipse cx="-2" cy="-12" rx="2.2" ry="7" fill="url(#hand6)"/>
    <ellipse cx="1" cy="-11" rx="2.2" ry="6.5" fill="url(#hand6)"/>
    <ellipse cx="4" cy="-9" rx="2" ry="5" fill="url(#hand6)"/>
    <ellipse cx="-7" cy="-5" rx="2.5" ry="4" fill="url(#hand6)" transform="rotate(-30)"/>
    <rect x="-4" y="8" width="8" height="8" rx="3" fill="url(#hand6)"/>
    <path d="M-2 0 Q0 2, 2 0" stroke="rgba(255,255,255,0.4)" stroke-width="1" fill="none"/>
  </g>
  
  <!-- Étoile centrale (symbole de l'autisme) -->
  <path d="M100 90 L102.5 97 L110 97 L104.5 102 L106.5 109 L100 105 L93.5 109 L95.5 102 L90 97 L97.5 97 Z" 
        fill="#93c5fd" 
        stroke="white" 
        stroke-width="1.5"
        filter="url(#glow)"/>
  
  <!-- Motifs puzzle décoratifs -->
  <g opacity="0.3">
    <circle cx="100" cy="100" r="75" fill="none" stroke="#2563eb" stroke-width="1" stroke-dasharray="3,3"/>
    <circle cx="100" cy="100" r="85" fill="none" stroke="#60a5fa" stroke-width="1" stroke-dasharray="5,5"/>
  </g>
  
  <!-- Texte mis en exergue avec arrière-plan et effets -->
  <g>
    <!-- Arrière-plan du texte principal avec bordure -->
    <rect x="20" y="162" width="160" height="20" rx="10" ry="10" 
          fill="white" 
          stroke="url(#autismBlueText)" 
          stroke-width="2.5" 
          filter="url(#dropShadow)"/>
    
    <!-- Texte principal avec gradient et ombre - Taille rigoureusement ajustée -->
    <text x="100" y="174.5" text-anchor="middle" font-family="Arial, sans-serif" font-size="7.5" font-weight="800" 
          fill="url(#autismBlueText)" filter="url(#textShadow)" textLength="135" lengthAdjust="spacing">
      ENSEMBLE POUR L'AUTISME
    </text>
    
    <!-- Ligne de séparation décorative -->
    <line x1="30" y1="186" x2="170" y2="186" stroke="#60a5fa" stroke-width="1.5"/>
    
    <!-- BAOBAB DE L'AUTISME AVEC DES ENFANTS AUTOUR -->
    <g transform="translate(100, 28)" filter="url(#dropShadow)">
      <!-- Arrière-plan oval pour le baobab -->
      <ellipse cx="0" cy="0" rx="50" ry="16" 
               fill="white" 
               stroke="url(#autismBlueText)" 
               stroke-width="2.5" 
               opacity="0.98"/>
      
      <!-- Baobab central - Tronc -->
      <g transform="translate(0, 2)">
        <!-- Tronc large caractéristique du baobab -->
        <path d="M -4 8 Q -5 4, -4 0 Q -3.5 -4, -3 -6 L 3 -6 Q 3.5 -4, 4 0 Q 5 4, 4 8 Z" 
              fill="url(#baobabTrunk)" 
              stroke="#78350f" 
              stroke-width="0.6"/>
        
        <!-- Texture du tronc -->
        <line x1="-3" y1="2" x2="-2.5" y2="2" stroke="#92400e" stroke-width="0.3" opacity="0.7"/>
        <line x1="2.5" y1="4" x2="3" y2="4" stroke="#92400e" stroke-width="0.3" opacity="0.7"/>
        <line x1="-2.5" y1="6" x2="-2" y2="6" stroke="#92400e" stroke-width="0.3" opacity="0.7"/>
        
        <!-- Couronne de feuillage (forme caractéristique du baobab) -->
        <!-- Branche gauche -->
        <circle cx="-8" cy="-4" r="4.5" fill="url(#baobabLeaves)" opacity="0.85"/>
        <!-- Branche droite -->
        <circle cx="8" cy="-4" r="4.5" fill="url(#baobabLeaves)" opacity="0.85"/>
        <!-- Couronne centrale -->
        <ellipse cx="0" cy="-7" rx="6" ry="4" fill="url(#baobabLeaves)" opacity="0.9"/>
        
        <!-- Feuilles détaillées (vert sénégalais) -->
        <g fill="#10b981" opacity="0.7">
          <!-- Feuilles gauche -->
          <ellipse cx="-9" cy="-5" rx="1.2" ry="0.8" transform="rotate(-30 -9 -5)"/>
          <ellipse cx="-7" cy="-2" rx="1" ry="0.7" transform="rotate(20 -7 -2)"/>
          <!-- Feuilles droite -->
          <ellipse cx="9" cy="-5" rx="1.2" ry="0.8" transform="rotate(30 9 -5)"/>
          <ellipse cx="7" cy="-2" rx="1" ry="0.7" transform="rotate(-20 7 -2)"/>
          <!-- Feuilles centrale -->
          <ellipse cx="0" cy="-9" rx="1.5" ry="0.9"/>
          <ellipse cx="-2" cy="-7" rx="1" ry="0.7" transform="rotate(-15 -2 -7)"/>
          <ellipse cx="2" cy="-7" rx="1" ry="0.7" transform="rotate(15 2 -7)"/>
        </g>
        
        <!-- Pièces de puzzle dans le feuillage (jaune sénégalais) -->
        <g fill="#f9ca24">
          <rect x="-1" y="-8" width="2" height="2" rx="0.3"/>
          <circle cx="-1" cy="-7" r="0.4"/>
          <rect x="-7" y="-5" width="1.5" height="1.5" rx="0.3"/>
          <rect x="6" y="-5" width="1.5" height="1.5" rx="0.3"/>
        </g>
      </g>
      
      <!-- Enfants autour du baobab (5 enfants avec couleurs sénégalaises) -->
      
      <!-- Enfant 1 (gauche loin - vert) -->
      <g transform="translate(-28, 2)">
        <circle cx="0" cy="0" r="3" fill="#FEF3C7" stroke="#00853f" stroke-width="0.6"/>
        <path d="M -2 -1 Q -2.5 -2.5 -1 -3 Q 0 -3.5 1 -3 Q 2.5 -2.5 2 -1" fill="#00853f"/>
        <ellipse cx="0" cy="4" rx="2.5" ry="4" fill="#10b981"/>
        <ellipse cx="-1" cy="8" rx="1" ry="2.5" fill="#00853f"/>
        <ellipse cx="1" cy="8" rx="1" ry="2.5" fill="#00853f"/>
        <!-- Bras levés vers le baobab -->
        <ellipse cx="-2.5" cy="3" rx="1.2" ry="2.5" fill="#FEF3C7" transform="rotate(-40 -2.5 3)"/>
        <ellipse cx="2.5" cy="3" rx="1.2" ry="2.5" fill="#FEF3C7" transform="rotate(40 2.5 3)"/>
      </g>
      
      <!-- Enfant 2 (gauche proche - bleu) -->
      <g transform="translate(-15, 3)">
        <circle cx="0" cy="0" r="3.5" fill="#FEF3C7" stroke="#2563eb" stroke-width="0.6"/>
        <path d="M -2.5 -1 Q -3 -3 -1.5 -3.5 Q 0 -4 1.5 -3.5 Q 3 -3 2.5 -1" fill="#2563eb"/>
        <ellipse cx="0" cy="5" rx="2.8" ry="4.5" fill="#3b82f6"/>
        <ellipse cx="-1.2" cy="10" rx="1.1" ry="2.8" fill="#2563eb"/>
        <ellipse cx="1.2" cy="10" rx="1.1" ry="2.8" fill="#2563eb"/>
        <!-- Tenant une pièce de puzzle (jaune) -->
        <ellipse cx="3.5" cy="4" rx="1.3" ry="2.5" fill="#FEF3C7" transform="rotate(35 3.5 4)"/>
        <rect x="4.5" y="3" width="2" height="2" rx="0.4" fill="#f9ca24" stroke="white" stroke-width="0.3"/>
        <circle cx="5.5" cy="3.8" r="0.5" fill="#f9ca24"/>
      </g>
      
      <!-- Enfant 3 (centre - jaune) -->
      <g transform="translate(0, 8)">
        <circle cx="0" cy="0" r="3" fill="#FEF3C7" stroke="#f9ca24" stroke-width="0.6"/>
        <path d="M -2 -1 Q -2.5 -2.5 -1 -3 Q 0 -3.5 1 -3 Q 2.5 -2.5 2 -1" fill="#fbbf24"/>
        <ellipse cx="0" cy="4" rx="2.5" ry="4" fill="#f9ca24"/>
        <ellipse cx="-1" cy="8" rx="1" ry="2.5" fill="#fbbf24"/>
        <ellipse cx="1" cy="8" rx="1" ry="2.5" fill="#fbbf24"/>
        <!-- Bras tendus vers le baobab -->
        <ellipse cx="-2" cy="4" rx="1.2" ry="2.5" fill="#FEF3C7" transform="rotate(-50 -2 4)"/>
        <ellipse cx="2" cy="4" rx="1.2" ry="2.5" fill="#FEF3C7" transform="rotate(50 2 4)"/>
        <!-- Cœur vert au-dessus -->
        <path d="M 0 -6 Q 0 -6.5 0.5 -6.5 Q 1 -6.5 1 -6 Q 1 -5.5 0 -4.5 Q -1 -5.5 -1 -6 Q -1 -6.5 -0.5 -6.5 Q 0 -6.5 0 -6 Z" fill="#10b981"/>
      </g>
      
      <!-- Enfant 4 (droite proche - bleu) -->
      <g transform="translate(15, 3)">
        <circle cx="0" cy="0" r="3.5" fill="#FEF3C7" stroke="#2563eb" stroke-width="0.6"/>
        <path d="M -2.5 -1 Q -3 -3 -1.5 -3.5 Q 0 -4 1.5 -3.5 Q 3 -3 2.5 -1" fill="#2563eb"/>
        <ellipse cx="0" cy="5" rx="2.8" ry="4.5" fill="#3b82f6"/>
        <ellipse cx="-1.2" cy="10" rx="1.1" ry="2.8" fill="#2563eb"/>
        <ellipse cx="1.2" cy="10" rx="1.1" ry="2.8" fill="#2563eb"/>
        <!-- Bras vers le baobab -->
        <ellipse cx="-3.5" cy="4" rx="1.3" ry="2.5" fill="#FEF3C7" transform="rotate(-35 -3.5 4)"/>
        <ellipse cx="2.5" cy="3" rx="1.2" ry="2.5" fill="#FEF3C7" transform="rotate(25 2.5 3)"/>
      </g>
      
      <!-- Enfant 5 (droite loin - vert) -->
      <g transform="translate(28, 2)">
        <circle cx="0" cy="0" r="3" fill="#FEF3C7" stroke="#10b981" stroke-width="0.6"/>
        <path d="M -2 -1 Q -2.5 -2.5 -1 -3 Q 0 -3.5 1 -3 Q 2.5 -2.5 2 -1" fill="#10b981"/>
        <ellipse cx="0" cy="4" rx="2.5" ry="4" fill="#00853f"/>
        <ellipse cx="-1" cy="8" rx="1" ry="2.5" fill="#00853f"/>
        <ellipse cx="1" cy="8" rx="1" ry="2.5" fill="#00853f"/>
        <!-- Bras joyeux -->
        <ellipse cx="-2.5" cy="3" rx="1.2" ry="2.5" fill="#FEF3C7" transform="rotate(-35 -2.5 3)"/>
        <ellipse cx="2.5" cy="3" rx="1.2" ry="2.5" fill="#FEF3C7" transform="rotate(35 2.5 3)"/>
      </g>
      
      <!-- Étoiles et cœurs autour du baobab -->
      <g fill="#93c5fd" opacity="0.7">
        <!-- Étoiles -->
        <path d="M -38 -2 L -37.5 -1 L -36.5 -1 L -37 -0.5 L -36.5 0.5 L -38 0 L -39.5 0.5 L -39 -0.5 L -39.5 -1 L -38.5 -1 Z"/>
        <path d="M 38 -2 L 38.5 -1 L 39.5 -1 L 39 -0.5 L 39.5 0.5 L 38 0 L 36.5 0.5 L 37 -0.5 L 36.5 -1 L 37.5 -1 Z"/>
        <!-- Cœurs -->
        <path d="M -42 3 Q -42 2.2 -41.3 2.2 Q -40.7 2.2 -40.7 3 Q -40.7 3.8 -42 5 Q -43.3 3.8 -43.3 3 Q -43.3 2.2 -42.7 2.2 Q -42 2.2 -42 3 Z"/>
        <path d="M 42 3 Q 42 2.2 42.7 2.2 Q 43.3 2.2 43.3 3 Q 43.3 3.8 42 5 Q 40.7 3.8 40.7 3 Q 40.7 2.2 41.3 2.2 Q 42 2.2 42 3 Z"/>
      </g>
    </g>
    
    <!-- Pièces de puzzle décoratives -->
    <g fill="#93c5fd" opacity="0.6">
      <rect x="20" y="167" width="3" height="3" rx="0.5"/>
      <rect x="177" y="167" width="3" height="3" rx="0.5"/>
    </g>
  </g>
</svg>
